# xmcd
#
# Track frame offsets:
#	150
#	3091
#	26262
#	44265
#	56667
#	76457
#	92403
#	107635
#	126947
#	142957
#	156662
#	165280
#	172913
#	192960
#	211968
#	226697
#	247872
#	274546
#	294083
#	309012
#	328990
#
# Disc length: 4526 seconds
#
# Revision: 1
# Processed by: cddbd v1.5.2PL0 Copyright (c) Steve Scherf et al.
# Submitted via: audiograbber 1.83.01
#
DISCID=0111ac15
DTITLE=Various Artist - DJ Clue - Only Built for Twitter Links Mixtape
DYEAR=2009
DGENRE=Rap
TTITLE0=DJ Clue and Raekwon - Intro
TTITLE1=Lil Wayne f./ Drake - My Darling Baby
TTITLE2=Fabolous - Never Let It Go
TTITLE3=Raekwon f./ Jadakiss and Styles P - Broken Safety
TTITLE4=Young Dose f./ Fabolous and Rick Ross - Where Dey Do Dat At! (Remix)
TTITLE5=50 Cent f./ Ne-Yo - Baby By Me
TTITLE6=Ron Browz f./ Jim Jones, Mase, OJ Da Juiceman and Shawty Lo - Gimmie $20 
TTITLE6=(Remix)
TTITLE7=Yo Gotti f./ Gucci Mane, Trina and Lil Boosie - 5 Star Chick (Remix)
TTITLE8=Raekwon f./ Ghostface and Cappadonna - 10 Bricks
TTITLE9=Lloyd Banks - Greenday
TTITLE10=Jadakiss f./ Mike Massive - Take It Ez
TTITLE11=Drake - Killer
TTITLE12=Rick Ross f./ Young Jeezy and Triple C'S - Eeerday
TTITLE13=Drake - Fear
TTITLE14=Jadakiss - Searching
TTITLE15=Gucci Mane f./ Trey Songz - Beat It Up
TTITLE16=Drake f./ Lil Wayne, Kanye West and Eminem - Forever
TTITLE17=Raekwon - Catalina
TTITLE18=Lloyd Banks - Rockband
TTITLE19=Ghostface f./ Fabolous - Guest House
TTITLE20=Rick Ross f./ Plies and Triple C'S - Yac
EXTD=
EXTT0=
EXTT1=
EXTT2=
EXTT3=
EXTT4=
EXTT5=
EXTT6=
EXTT7=
EXTT8=
EXTT9=
EXTT10=
EXTT11=
EXTT12=
EXTT13=
EXTT14=
EXTT15=
EXTT16=
EXTT17=
EXTT18=
EXTT19=
EXTT20=
PLAYORDER=
